Normalized EMG Linear Envelopes
nRows=119
nColumns=4

endheader
time	 med_gas_r	  soleus_r	 tib_ant_r	
3.59274	  0.019694	  0.131510	  0.038820	
3.62601	  0.020110	  0.135957	  0.038058	
3.65927	  0.020577	  0.139821	  0.037298	
3.69254	  0.021104	  0.142819	  0.036587	
3.72581	  0.021640	  0.144712	  0.035969	
3.75907	  0.022123	  0.145303	  0.035458	
3.79234	  0.022538	  0.144487	  0.035030	
3.8256	  0.022927	  0.142394	  0.034645	
3.85887	  0.023329	  0.139486	  0.034288	
3.89214	  0.023702	  0.136485	  0.033965	
3.9254	  0.023921	  0.134122	  0.033677	
3.95867	  0.023860	  0.132854	  0.033411	
3.99194	  0.023510	  0.132728	  0.033157	
4.0252	  0.023002	  0.133455	  0.032943	
4.05847	  0.022531	  0.134631	  0.032828	
4.09173	  0.022237	  0.135911	  0.032875	
4.125	  0.022143	  0.137064	  0.033112	
4.15827	  0.022186	  0.137926	  0.033528	
4.19153	  0.022280	  0.138375	  0.034101	
4.2248	  0.022369	  0.138380	  0.034797	
4.25806	  0.022435	  0.138075	  0.035556	
4.29133	  0.022476	  0.137743	  0.036257	
4.3246	  0.022474	  0.137664	  0.036738	
4.35786	  0.022385	  0.137907	  0.036851	
4.39113	  0.022156	  0.138262	  0.036539	
4.4244	  0.021773	  0.138389	  0.035857	
4.45766	  0.021298	  0.138069	  0.034941	
4.49093	  0.020859	  0.137345	  0.033960	
4.52419	  0.020587	  0.136430	  0.033079	
4.55746	  0.020543	  0.135545	  0.032441	
4.59073	  0.020686	  0.134826	  0.032146	
4.62399	  0.020912	  0.134368	  0.032222	
4.65726	  0.021131	  0.134264	  0.032602	
4.69052	  0.021320	  0.134575	  0.033144	
4.72379	  0.021508	  0.135263	  0.033689	
4.75706	  0.021720	  0.136212	  0.034114	
4.79032	  0.021919	  0.137344	  0.034352	
4.82359	  0.022021	  0.138711	  0.034396	
4.85685	  0.021954	  0.140430	  0.034280	
4.89012	  0.021718	  0.142493	  0.034081	
4.92339	  0.021391	  0.144631	  0.033911	
4.95665	  0.021085	  0.146388	  0.033881	
4.98992	  0.020897	  0.147333	  0.034053	
5.02319	  0.020887	  0.147213	  0.034410	
5.05645	  0.021088	  0.145982	  0.034860	
5.08972	  0.021510	  0.143780	  0.035293	
5.12298	  0.022116	  0.140947	  0.035626	
5.15625	  0.022806	  0.138019	  0.035818	
5.18952	  0.023440	  0.135593	  0.035850	
5.22278	  0.023901	  0.134078	  0.035701	
5.25605	  0.024164	  0.133492	  0.035353	
5.28931	  0.024311	  0.133494	  0.034817	
5.32258	  0.024485	  0.133614	  0.034164	
5.35585	  0.024805	  0.133532	  0.033522	
5.38911	  0.025286	  0.133215	  0.033039	
5.42238	  0.025822	  0.132856	  0.032817	
5.45565	  0.026239	  0.132701	  0.032868	
5.48891	  0.026401	  0.132882	  0.033117	
5.52218	  0.026290	  0.133359	  0.033456	
5.55544	  0.025993	  0.133997	  0.033826	
5.58871	  0.025622	  0.134701	  0.034256	
5.62198	  0.025219	  0.135494	  0.034832	
5.65524	  0.024745	  0.136465	  0.035615	
5.68851	  0.024144	  0.137631	  0.036564	
5.72177	  0.023432	  0.138822	  0.037552	
5.75504	  0.022721	  0.139713	  0.038425	
5.78831	  0.022184	  0.139960	  0.039076	
5.82157	  0.021963	  0.139388	  0.039471	
5.85484	  0.022085	  0.138093	  0.039617	
5.8881	  0.022435	  0.136403	  0.039501	
5.92137	  0.022799	  0.134744	  0.039079	
5.95464	  0.022976	  0.133459	  0.038311	
5.9879	  0.022890	  0.132719	  0.037233	
6.02117	  0.022624	  0.132525	  0.035989	
6.05444	  0.022356	  0.132800	  0.034786	
6.0877	  0.022240	  0.133479	  0.033805	
6.12097	  0.022327	  0.134518	  0.033148	
6.15423	  0.022563	  0.135817	  0.032831	
6.1875	  0.022845	  0.137149	  0.032821	
6.22077	  0.023079	  0.138208	  0.033055	
6.25403	  0.023210	  0.138780	  0.033437	
6.2873	  0.023233	  0.138902	  0.033833	
6.32056	  0.023171	  0.138865	  0.034099	
6.35383	  0.023062	  0.139032	  0.034138	
6.3871	  0.022944	  0.139586	  0.033954	
6.42036	  0.022851	  0.140381	  0.033667	
6.45363	  0.022806	  0.141027	  0.033461	
6.4869	  0.022794	  0.141153	  0.033483	
6.52016	  0.022758	  0.140655	  0.033759	
6.55343	  0.022641	  0.139756	  0.034191	
6.58669	  0.022435	  0.138853	  0.034626	
6.61996	  0.022203	  0.138304	  0.034954	
6.65323	  0.022037	  0.138315	  0.035162	
6.68649	  0.021990	  0.138936	  0.035300	
6.71976	  0.022050	  0.140075	  0.035412	
6.75302	  0.022181	  0.141486	  0.035495	
6.78629	  0.022387	  0.142775	  0.035520	
6.81956	  0.022728	  0.143496	  0.035482	
6.85282	  0.023267	  0.143296	  0.035424	
6.88609	  0.023989	  0.142021	  0.035403	
6.91935	  0.024775	  0.139758	  0.035440	
6.95262	  0.025437	  0.136800	  0.035501	
6.98589	  0.025813	  0.133558	  0.035521	
7.01915	  0.025844	  0.130431	  0.035453	
7.05242	  0.025585	  0.127672	  0.035304	
7.08569	  0.025158	  0.125387	  0.035122	
7.11895	  0.024663	  0.123662	  0.034948	
7.15222	  0.024131	  0.122691	  0.034778	
7.18548	  0.023532	  0.122742	  0.034573	
7.21875	  0.022852	  0.123956	  0.034303	
7.25202	  0.022149	  0.126132	  0.033990	
7.28528	  0.021560	  0.128696	  0.033707	
7.31855	  0.021222	  0.130888	  0.033529	
7.35181	  0.021184	  0.132064	  0.033478	
7.38508	  0.021383	  0.131971	  0.033510	
7.41835	  0.021684	  0.130874	  0.033550	
7.45161	  0.021974	  0.129484	  0.033552	
7.48488	  0.022214	  0.128694	  0.033532	
7.51815	  0.022425	  0.129202	  0.033570	
